<svg width="14" height="23" viewBox="0 0 14 23" fill="none" xmlns="http://www.w3.org/2000/svg">
<path fill-rule="evenodd" clip-rule="evenodd" d="M13.1305 22.4739C13.2694 22.3351 13.3796 22.1703 13.4548 21.989C13.53 21.8076 13.5687 21.6132 13.5687 21.4168C13.5687 21.2204 13.53 21.026 13.4548 20.8446C13.3796 20.6633 13.2694 20.4985 13.1305 20.3597L4.22542 11.4547L13.1305 2.55112C13.2692 2.41229 13.3792 2.24751 13.4542 2.06617C13.5293 1.88483 13.5679 1.69049 13.5678 1.49423C13.5677 1.29798 13.529 1.10366 13.4538 0.922377C13.3787 0.741089 13.2685 0.576385 13.1297 0.437662C12.9909 0.298941 12.8261 0.188917 12.6448 0.113878C12.4634 0.0388393 12.2691 0.000253677 12.0728 0.000324249C11.8766 0.000392914 11.6823 0.0391159 11.501 0.114283C11.3197 0.189449 11.155 0.299589 11.0163 0.43841L1.05636 10.3998L2.86102e-06 11.4562L1.05636 12.5125L11.0163 22.4739C11.155 22.6128 11.3198 22.723 11.5012 22.7982C11.6826 22.8734 11.877 22.9121 12.0734 22.9121C12.2697 22.9121 12.4641 22.8734 12.6455 22.7982C12.8269 22.723 12.9917 22.6128 13.1305 22.4739Z" fill="#22201F"/>
</svg>
