<svg width="62" height="60" viewBox="0 0 62 60" fill="none" xmlns="http://www.w3.org/2000/svg">
<path d="M0.0207863 15.9119L0.831963 11.478C0.943275 10.8696 1.47297 10.4282 2.0903 10.4282C2.09286 10.4282 2.09414 10.4282 2.0967 10.4282C2.71723 10.4307 3.24501 10.8779 3.3512 11.4888L10.6486 53.5316L47.839 53.5329C48.7302 53.5329 49.5548 53.1644 50.1632 52.4959C50.8605 51.7276 51.2488 50.5819 51.1554 49.5999C50.8828 47.2335 49.1722 45.5152 47.0905 45.5152H16.0536C15.4299 45.5152 14.8963 45.0655 14.7927 44.4494L7.52669 1.49312C7.464 1.12144 7.56763 0.741443 7.81137 0.453566C8.05383 0.165689 8.41143 0 8.78759 0H39.8002C46.875 0 53.7814 5.7537 55.1972 12.8214L61.8234 45.2664C62.4197 49.0651 61.4946 52.636 59.2185 55.3235C56.9833 57.9624 53.706 59.4158 49.9898 59.4158L49.3974 59.4139C49.3859 59.4139 49.375 59.4146 49.3622 59.4146C47.3829 59.4165 9.52967 59.419 9.13496 59.419C7.70262 59.419 6.48202 58.3929 6.22869 56.9516L0.0150299 16.3341C-0.00735855 16.1947 -0.00416565 16.0507 0.0207863 15.9119Z" fill="#E5C009"/>
</svg>
