<svg width="15" height="24" viewBox="0 0 15 24" fill="none" xmlns="http://www.w3.org/2000/svg">
<path fill-rule="evenodd" clip-rule="evenodd" d="M0.984108 0.753151C0.845189 0.891916 0.734983 1.0567 0.659792 1.23809C0.584601 1.41947 0.545898 1.6139 0.545898 1.81025C0.545898 2.0066 0.584601 2.20103 0.659792 2.38242C0.734983 2.5638 0.845189 2.72859 0.984108 2.86735L9.88915 11.7724L0.984108 20.6759C0.845386 20.8148 0.735365 20.9795 0.660326 21.1609C0.585288 21.3422 0.546702 21.5366 0.546771 21.7328C0.546841 21.9291 0.585565 22.1234 0.660731 22.3047C0.735898 22.486 0.846035 22.6507 0.984856 22.7894C1.12368 22.9281 1.28846 23.0381 1.4698 23.1132C1.65114 23.1882 1.84548 23.2268 2.04174 23.2267C2.23799 23.2267 2.43231 23.1879 2.61359 23.1128C2.79488 23.0376 2.95959 22.9275 3.09831 22.7886L13.0582 12.8272L14.1146 11.7709L13.0582 10.7145L3.09831 0.753151C2.95954 0.614232 2.79476 0.504026 2.61337 0.428835C2.43199 0.353643 2.23756 0.314941 2.04121 0.314941C1.84486 0.314941 1.65043 0.353643 1.46904 0.428835C1.28766 0.504026 1.12287 0.614232 0.984108 0.753151Z" fill="#22201F"/>
</svg>
